<?xml version="1.0" encoding="utf-8"?>
<!-- Generator: Adobe Illustrator 24.3.0, SVG Export Plug-In . SVG Version: 6.00 Build 0)  -->
<svg version="1.1" id="Layer_1" xmlns="http://www.w3.org/2000/svg" xmlns:xlink="http://www.w3.org/1999/xlink" x="0px" y="0px"
	 viewBox="0 0 68 68" style="enable-background:new 0 0 68 68;" xml:space="preserve">
<style type="text/css">
	
		.st0{display:none;fill:none;stroke:#00DCF0;stroke-width:0.2835;stroke-linecap:round;stroke-linejoin:round;stroke-miterlimit:10;}
	.st1{fill:none;stroke:#00DCF0;stroke-width:0.2835;stroke-linecap:round;stroke-linejoin:round;stroke-miterlimit:10;}
	.st2{fill:none;stroke:#000000;stroke-width:0.2835;stroke-linecap:round;stroke-linejoin:round;stroke-miterlimit:10;}
	
		.st3{display:none;fill:none;stroke:#F00000;stroke-width:0.2835;stroke-linecap:round;stroke-linejoin:round;stroke-miterlimit:10;}
</style>
<rect x="-8.5" y="-8.5" class="st0" width="85" height="85"/>
<circle class="st0" cx="34" cy="34" r="34"/>
<path id="scleraBack" class="st1" d="M34,10c-13.3,0-24,10.7-24,24s10.7,24.1,24,24.1S58.1,47.3,58.1,34S47.3,10,34,10"/>
<path id="scleraFront" class="st1" d="M34,17.7c9,0,16.3,7.3,16.3,16.3S43,50.3,34,50.3S17.7,43,17.7,34S25,17.7,34,17.7"/>
<path id="iris" class="st2" d="M34,10c12.7,0,22.9,10.7,22.9,24S46.7,58,34,58S11.1,47.3,11.1,34S21.3,10,34,10"/>
<path id="pupilMax" class="st2" d="M34,26.6c3.8,0,6.8,3.3,6.8,7.3s-3,7.4-6.8,7.4s-6.8-3.3-6.8-7.4S30.2,26.6,34,26.6"/>
<path id="pupilMin" class="st2" d="M34,31.2c1.6,0,2.8,1.3,2.8,2.8c0,1.6-1.3,2.8-2.8,2.8c-1.6,0-2.8-1.3-2.8-2.8S32.5,31.2,34,31.2
	"/>
<path id="lowerLidEdge" class="st3" d="M72.7,31.6c0.1,0.8,0.1,1.6,0.1,2.4c0,21.4-17.3,38.7-38.7,38.7c-17.7,0-32.7-11.9-37.3-28.1
	"/>
<path id="lowerLidClosed" class="st3" d="M68.1,30.3c0.3,4.4-1,11-9.6,15.1c-10.4,5-25.4,3.6-37.2,0.3C9.5,42.5,8.3,40.3,2,42.4
	c-3.9,1.3-3.4,1.6-3.6,2.2"/>
<path id="lowerLidOpen" class="st3" d="M70.7,31.6c1.1,14.1-4.6,25.7-12.7,32.5c-12,10-25.3,7.3-34.5,3.7
	C2.4,59.7,3.3,50.8-1.3,49.7c-2.1-0.5-3.3-1.2-3.4-3.5"/>
<path id="upperLidEdge" class="st3" d="M-3.6,43.3c-0.7-3-1.1-6.1-1.1-9.3C-4.7,12.6,12.6-4.7,34-4.7c20.1,0,36.6,15.2,38.5,34.8"/>
<path id="upperLidClosed" class="st3" d="M68.2,31.7C68,37.2,65.4,43,57.4,46.9c-9,4.4-18.7,4-33.5,0.7C8.2,44.1,7,43.6,1.4,44.3
	c-2,0.2-2.6-0.2-2.8-1.1"/>
<path id="upperLidOpen" class="st3" d="M70,26.6C68.4,14.9,60.1,5.8,54,2.2c-7.3-4.3-21.8-7.8-35.3,0C4.1,10.7,4.5,17.2-2.2,25
	c-2.8,3.3-2.2,6.6-2.5,14.5"/>
</svg>
