<?xml version="1.0" encoding="utf-8"?>
<!-- Generator: Adobe Illustrator 22.1.0, SVG Export Plug-In . SVG Version: 6.00 Build 0)  -->
<svg version="1.1" id="Layer_1" xmlns="http://www.w3.org/2000/svg" xmlns:xlink="http://www.w3.org/1999/xlink" x="0px" y="0px"
	 viewBox="0 0 68 68" style="enable-background:new 0 0 68 68;" xml:space="preserve">
<style type="text/css">
	.st0{fill:none;stroke:#00DCF0;stroke-width:0.2835;stroke-linecap:round;stroke-linejoin:round;stroke-miterlimit:10;}
	.st1{fill:none;stroke:#000000;stroke-width:0.2835;stroke-linecap:round;stroke-linejoin:round;stroke-miterlimit:10;}
	
		.st2{display:none;fill:none;stroke:#F00000;stroke-width:0.2835;stroke-linecap:round;stroke-linejoin:round;stroke-miterlimit:10;}
</style>
<rect x="-8.5" y="-8.5" class="st0" width="85" height="85"/>
<circle class="st0" cx="34" cy="34.1" r="36.5"/>
<path id="scleraBack" class="st0" d="M33.9,1.7C16,1.7,1.5,15.6,1.5,32.9S16,64.2,34,64.2s32.5-14,32.5-31.3S52,1.7,33.9,1.7"/>
<path id="scleraFront" class="st0" d="M34,17.7c9,0,16.3,7.3,16.3,16.3S43,50.3,34,50.3S17.7,43,17.7,34S25,17.7,34,17.7"/>
<path id="iris" class="st1" d="M34.1,4.9c15.5,0,28,12.5,28,28s-12.5,28.2-28,28.2S5.9,48.6,5.9,33.1S18.4,4.9,34.1,4.9"/>
<path id="pupilMax" class="st1" d="M34,22.7c6.3,0,11.3,5.1,11.3,11.3s-5,11.4-11.3,11.4S22.7,40.3,22.7,34S27.8,22.7,34,22.7"/>
<path id="pupilMin" class="st1" d="M34,31.2c1.6,0,2.8,1.3,2.8,2.8c0,1.6-1.3,2.8-2.8,2.8c-1.6,0-2.8-1.3-2.8-2.8S32.5,31.2,34,31.2
	"/>
<path id="lowerLidEdge" class="st2" d="M72.7,31.6c0.1,0.8,0.1,1.6,0.1,2.4c0,21.4-17.3,38.7-38.7,38.7c-17.7,0-32.7-11.9-37.3-28.1
	"/>
<path id="lowerLidClosed" class="st2" d="M68.1,30.3c0.3,4.4-1,11-9.6,15.1c-10.4,5-25.4,3.6-37.2,0.3C9.5,42.5,8.3,40.3,2,42.4
	c-3.9,1.3-3.4,1.6-3.6,2.2"/>
<path id="lowerLidOpen" class="st2" d="M68.2,31.7c1,12.4-4.3,22.6-11.8,28.6c-11.1,8.8-23.4,6.4-31.9,3.3
	C4.9,56.5,5.8,48.6,1.6,47.7c-2-0.4-3.1-1.1-3.2-3.1"/>
<path id="upperLidEdge" class="st2" d="M-3.6,43.3c-0.7-3-1.1-6.1-1.1-9.3C-4.7,12.6,12.6-4.7,34-4.7c20.1,0,36.6,15.2,38.5,34.8"/>
<path id="upperLidClosed" class="st2" d="M68.2,31.7C68,37.2,65.4,43,57.4,46.9c-9,4.4-18.7,4-33.5,0.7C8.2,44.1,7,43.6,1.4,44.3
	c-2,0.2-2.6-0.2-2.8-1.1"/>
<path id="upperLidOpen" class="st2" d="M68.1,30.3C66.5,18.6,58.9,9.5,53.2,5.9c-6.8-4.3-20.3-7.8-32.8,0C6.8,14.4,7.2,20.9,1,28.7
	c-2.6,3.3-2,6.6-2.3,14.5"/>
</svg>
